<svg xmlns="http://www.w3.org/2000/svg" fill="none" viewBox="0 0 82.550003 31.75">
    <path transform="translate(0,-52.210457)" d="m 5.057466,83.960457 q -2.678906,0 -4.514453,-1.835547 -1.835547,-1.885156 -1.835547,-4.514453 v -12.7 h 6.35 v 9.525 q 0,1.339453 0.892969,2.282031 0.942578,0.892969 2.282031,0.892969 h 22.225 v -6.35 h -12.7 q -2.678906,0 -4.514453,-1.835547 -1.835547,-1.885156 -1.835547,-4.514453 h 25.4 v 19.05 z m -6.35,-25.4 v -6.35 h 38.1 q 0,2.678907 -1.885157,4.514453 -1.885156,1.835547 -4.464843,1.835547 z m 44.450001,25.4 v -19.05 h 28.575003 q 1.28984,0 2.23242,-0.892969 0.94258,-0.942578 0.94258,-2.282031 v -3.175 h -25.4 q -2.678909,0 -4.514456,-1.835547 -1.835547,-1.885156 -1.835547,-4.514453 h 38.100003 v 12.7 q 0,2.678906 -1.88516,4.514453 -1.88516,1.835547 -4.46484,1.835547 h -6.35 l 12.7,12.7 h -9.525 l -12.7,-12.7 h -9.525 v 12.7 z" />
    <style>
        path { fill: #000; }
        @media (prefers-color-scheme: dark) {
            path { fill: #FFF; }
        }
    </style>
</svg>
