<?xml version="1.0" encoding="UTF-8" standalone="no"?>
<!-- Created with Inkscape (http://www.inkscape.org/) -->

<svg
   width="51.505516mm"
   height="3.5277753mm"
   viewBox="0 0 51.505516 3.5277752"
   version="1.1"
   id="svg1"
   xmlns="http://www.w3.org/2000/svg"
   xmlns:svg="http://www.w3.org/2000/svg">
  <defs
     id="defs1" />
  <g
     id="layer1"
     transform="translate(-184.47679,-88.566723)">
    <path
       d="m 185.18235,92.094498 q -0.29766,0 -0.50161,-0.20395 -0.20395,-0.209461 -0.20395,-0.501605 v -1.41111 h 0.70556 v 1.058332 q 0,0.148828 0.0992,0.253559 0.10473,0.09922 0.25355,0.09922 h 2.46945 v -0.705555 h -1.41111 q -0.29766,0 -0.50161,-0.20395 -0.20395,-0.209462 -0.20395,-0.501605 h 2.82222 v 2.116665 z m -0.70556,-2.82222 v -0.705555 h 4.23333 q 0,0.297656 -0.20946,0.501605 -0.20946,0.20395 -0.49609,0.20395 z m 4.93889,2.82222 v -2.116665 h 3.17499 q 0.14332,0 0.24805,-0.09922 0.10473,-0.104731 0.10473,-0.253559 v -0.352777 h -2.82222 q -0.29765,0 -0.5016,-0.20395 -0.20395,-0.209462 -0.20395,-0.501605 h 4.23333 v 1.41111 q 0,0.297656 -0.20946,0.501605 -0.20947,0.20395 -0.4961,0.20395 h -0.70555 l 1.41111,1.41111 h -1.05834 l -1.41111,-1.41111 h -1.05833 v 1.41111 z m 5.64444,0 q -0.29766,0 -0.50161,-0.20395 -0.20395,-0.209461 -0.20395,-0.501605 h 4.23333 q 0,0.297656 -0.20946,0.501605 -0.20946,0.20395 -0.49609,0.20395 z m 0,-1.41111 q -0.29766,0 -0.50161,-0.20395 -0.20395,-0.209462 -0.20395,-0.501605 h 4.23333 q 0,0.297656 -0.20946,0.501605 -0.20946,0.20395 -0.49609,0.20395 z m 0,-1.41111 q -0.29766,0 -0.50161,-0.20395 -0.20395,-0.209462 -0.20395,-0.501605 h 4.23333 q 0,0.297656 -0.20946,0.501605 -0.20946,0.20395 -0.49609,0.20395 z m 4.93888,2.82222 q -0.29765,0 -0.5016,-0.20395 -0.20395,-0.209461 -0.20395,-0.501605 v -1.41111 h 0.70555 v 1.058332 q 0,0.148828 0.0992,0.253559 0.10473,0.09922 0.25356,0.09922 h 2.46944 v -0.705555 h -1.41111 q -0.29765,0 -0.5016,-0.20395 -0.20395,-0.209462 -0.20395,-0.501605 h 2.82222 v 2.116665 z m -0.70555,-2.82222 v -0.705555 h 4.23333 q 0,0.297656 -0.20946,0.501605 -0.20947,0.20395 -0.4961,0.20395 z m 4.93888,2.82222 v -2.116665 h 4.23333 v 2.116665 h -0.70555 v -1.41111 h -2.82222 v 1.41111 z m 0.70556,-2.82222 q -0.29766,0 -0.50161,-0.20395 -0.20395,-0.209462 -0.20395,-0.501605 h 4.23333 q 0,0.297656 -0.20946,0.501605 -0.20946,0.20395 -0.49609,0.20395 z m 6.34999,2.82222 v -2.116665 h 3.175 q 0.14332,0 0.24805,-0.09922 0.10473,-0.104731 0.10473,-0.253559 v -0.352777 h -2.82222 q -0.29766,0 -0.50161,-0.20395 -0.20395,-0.209462 -0.20395,-0.501605 h 4.23333 v 1.41111 q 0,0.297656 -0.20946,0.501605 -0.20946,0.20395 -0.49609,0.20395 h -0.70556 l 1.41111,1.41111 h -1.05833 l -1.41111,-1.41111 h -1.05833 v 1.41111 z m 4.93889,0 v -2.116665 h 0.70555 v 1.41111 h 2.82222 v -1.41111 h 0.70556 v 2.116665 z m 0.70555,-2.82222 q -0.29765,0 -0.5016,-0.20395 -0.20395,-0.209462 -0.20395,-0.501605 h 4.23333 q 0,0.297656 -0.20946,0.501605 -0.20946,0.20395 -0.4961,0.20395 z m 5.99722,2.82222 v -2.82222 h -1.05833 q -0.29766,0 -0.50161,-0.20395 -0.20395,-0.209462 -0.20395,-0.501605 h 4.23333 q 0,0.297656 -0.20946,0.501605 -0.20946,0.20395 -0.49609,0.20395 h -1.05833 v 2.82222 z m 3.175,0 v -2.116665 h 4.23333 v 2.116665 h -0.70556 v -1.41111 h -2.82222 v 1.41111 z m 0.70555,-2.82222 q -0.29765,0 -0.5016,-0.20395 -0.20395,-0.209462 -0.20395,-0.501605 h 4.23333 q 0,0.297656 -0.20946,0.501605 -0.20947,0.20395 -0.4961,0.20395 z m 4.23333,2.82222 v -2.116665 h 3.175 q 0.14332,0 0.24805,-0.09922 0.10473,-0.104731 0.10473,-0.253559 v -0.352777 h -2.82222 q -0.29766,0 -0.50161,-0.20395 -0.20395,-0.209462 -0.20395,-0.501605 h 4.23333 v 1.41111 q 0,0.297656 -0.20946,0.501605 -0.20946,0.20395 -0.49609,0.20395 h -0.70556 l 1.41111,1.41111 h -1.05833 l -1.41111,-1.41111 h -1.05833 v 1.41111 z"
       id="text1"
       style="font-size:5.64444px;font-family:TESLA;-inkscape-font-specification:TESLA;stroke-width:0.264583"
       aria-label="GREGA ROTAR &#10;" />
  </g>
</svg>
